<mxfile host="app.diagrams.net" modified="2024-07-09T11:30:44.007Z" agent="Mozilla/5.0 (Windows NT 10.0; Win64; x64) AppleWebKit/537.36 (KHTML, like Gecko) Chrome/123.0.0.0 Safari/537.36 OPR/109.0.0.0" version="24.6.4" etag="uFB3oYqhHahRHhT8ZTfA" type="github">
  <diagram name="Page-1" id="X-Ghk8l-PCpVg_ErUDbk">
    <mxGraphModel>
      <root>
        <mxCell id="0" />
        <mxCell id="1" parent="0" />
      </root>
    </mxGraphModel>
  </diagram>
</mxfile>
